# xmcd CD database file
#
# Track frame offsets:
#	150
#	20347
#	34330
#
# Disc length: 765 seconds
#
# Revision: 0
# Processed by: cddbd v1.4PL0 Copyright (c) Steve Scherf et al.
# Submitted via: CDex 1.51
#
DISCID=1c02fb03
DTITLE=Jazz and Tzaz - 016 - Radio Edits
DYEAR=1993
DGENRE=Jazz
TTITLE0=Jan Garbarek Group - Twelve Moons
TTITLE1=Jan Garbarek Group - Huhai
TTITLE2=Jan Garbarek Group - Brother Wind March
EXTD=YEAR: 1993
EXTT0=
EXTT1=
EXTT2=
PLAYORDER=
